<?xml version="1.0" encoding="utf-8"?>
<!-- Generator: Adobe Illustrator 22.0.0, SVG Export Plug-In . SVG Version: 6.00 Build 0)  -->
<svg version="1.1" id="Layer_1" xmlns="http://www.w3.org/2000/svg" xmlns:xlink="http://www.w3.org/1999/xlink" x="0px" y="0px"
	 viewBox="0 0 512 269" style="enable-background:new 0 0 512 269;" xml:space="preserve">
<style type="text/css">
	.st0{fill:#6F9941;}
</style>
<path class="st0" d="M128.6,166.6c0-0.1,0-0.3,0-0.4h0c-0.1-0.6-0.1-1.2-0.2-1.8c0-0.2,0-0.3-0.1-0.5c-0.1-0.5-0.1-1.1-0.2-1.6
	c0-0.2-0.1-0.4-0.1-0.6c-0.1-0.7-0.2-1.3-0.3-2c0-0.1,0-0.1,0-0.2c-0.1-0.6-0.2-1.3-0.3-1.9c0-0.2-0.1-0.4-0.1-0.6
	c-0.1-0.5-0.2-1.1-0.3-1.6c0-0.1-0.1-0.3-0.1-0.4c-0.1-0.7-0.3-1.3-0.4-2c0-0.2-0.1-0.4-0.1-0.5c-0.1-0.5-0.3-1-0.4-1.6
	c0-0.2-0.1-0.4-0.1-0.5c-0.2-0.7-0.3-1.3-0.5-2c0,0,0-0.1,0-0.1c0,0,0,0,0-0.1c-0.7-2.5-1.5-5-2.4-7.4c-2.2-6-4.9-11.8-8-17.3
	c-1.5-2.7-3.2-5.2-4.9-7.7c-4.1-5.8-8.7-11.2-13.8-16.2c-0.7,0.2-1.1,0.3-1.2,0.4c0.1,0,0.5-0.1,1.2-0.4c-2.1-2.1-4.4-4-6.6-5.9
	c-0.1-0.1-0.1-0.1-0.2-0.2c-0.2-0.2-0.4-0.3-0.6-0.4c0,0-0.1,0-0.1-0.1c-5-4-10.3-7.6-16-10.7c-1.6-0.9-3.5-0.9-5.1,0
	c-5.7,3.1-11,6.7-16,10.7c0,0-0.1,0-0.1,0.1c-0.2,0.2-0.4,0.3-0.6,0.4c-0.1,0.1-0.1,0.1-0.2,0.2c-2.3,1.9-4.5,3.8-6.6,5.9
	c0.7,0.2,1.1,0.3,1.2,0.4c-0.1,0-0.5-0.1-1.2-0.4c-5.1,4.9-9.7,10.3-13.8,16.2c-1.7,2.5-3.4,5.1-4.9,7.7c-3.2,5.5-5.8,11.3-8,17.3
	c-0.9,2.4-1.7,4.9-2.4,7.4c0,0,0,0,0,0.1c0,0,0,0.1,0,0.1c-0.2,0.6-0.4,1.3-0.5,2c0,0.2-0.1,0.4-0.1,0.5c-0.1,0.5-0.3,1-0.4,1.6
	c0,0.2-0.1,0.4-0.1,0.5c-0.2,0.7-0.3,1.3-0.4,2c0,0.1-0.1,0.3-0.1,0.4c-0.1,0.5-0.2,1.1-0.3,1.6c0,0.2-0.1,0.4-0.1,0.6
	c-0.1,0.6-0.2,1.2-0.3,1.9c0,0.1,0,0.1,0,0.2c-0.1,0.7-0.2,1.3-0.3,2c0,0.2-0.1,0.4-0.1,0.6c-0.1,0.5-0.1,1.1-0.2,1.6
	c0,0.2,0,0.3-0.1,0.5c-0.1,0.6-0.1,1.2-0.2,1.8h0c0,0.1,0,0.3,0,0.4c-0.2,2.1,0.8,4,2.6,5.1c3.1,1.9,6.3,3.6,9.6,5.2
	c0,0,0.1,0,0.1,0.1c0.3,0.1,0.6,0.3,0.9,0.4h1.2c0,0,0,0,0,0h-1.2c4.3,2,8.8,3.7,13.4,5.1c8.8,2.7,18.2,4.3,27.8,4.7
	c1.3,0,2.7,0.1,4,0.1c1.4,0,2.7,0,4-0.1c9.6-0.4,19-2,27.8-4.7c4.6-1.4,9.1-3.1,13.4-5.1h-1.2c0,0,0,0,0,0h1.2
	c0.3-0.1,0.6-0.3,0.8-0.4c0.1,0,0.2-0.1,0.2-0.1c3.3-1.6,6.5-3.3,9.6-5.2C127.8,170.7,128.8,168.7,128.6,166.6z M72.2,160.2
	c-0.7,0-1.4,0-2.2,0s-1.4,0-2.2,0c-9.4-0.2-18.4-2.1-26.7-5.3c0,0,0,0,0,0v0h0c2.3-8,5.8-15.5,10.3-22.2c0.5-0.8,1-1.5,1.6-2.3
	c4.8-6.7,10.5-12.6,17.1-17.6l0,0h0l0,0c6.5,5,12.3,10.9,17.1,17.6c0.5,0.8,1.1,1.5,1.6,2.3c4.5,6.8,8,14.2,10.3,22.2
	C90.6,158.2,81.6,160,72.2,160.2z"/>
<g>
	<path d="M162.4,160.3h-8.8v-53.4h21.2c6.1,0,10.9,1.4,14.2,4.3c3.3,2.9,5,7.1,5,12.6c0,5.6-1.7,9.8-5,12.9c-3.3,3-8.1,4.5-14.1,4.5
		h-12.3V160.3z M173.7,133.6c4.2,0,7.1-0.9,8.7-2.6c1.6-1.7,2.4-4,2.4-6.9c0-3-0.8-5.4-2.4-7.1c-1.6-1.8-4.5-2.6-8.7-2.6h-11.2v19.3
		H173.7z"/>
	<path d="M203.6,156c-3.2-3.6-4.8-8.9-4.8-15.9c0-14,6.4-21.1,19.2-21.1c6.5,0,11.3,1.8,14.6,5.4c3.3,3.6,4.9,8.8,4.9,15.7
		c0,6.8-1.7,12.1-5,15.8c-3.4,3.7-8.1,5.5-14.3,5.5C211.6,161.5,206.8,159.6,203.6,156z M229,140.1c0-4.7-0.9-8.2-2.6-10.5
		c-1.8-2.3-4.6-3.5-8.4-3.5c-3.9,0-6.7,1.2-8.4,3.6c-1.7,2.4-2.5,5.9-2.5,10.5c0,4.6,0.9,8.1,2.6,10.5c1.7,2.4,4.5,3.6,8.3,3.6
		C225.3,154.3,229,149.6,229,140.1z"/>
	<path d="M278.9,103.2v48.6c0,2.1-0.9,3.9-2.6,5.4c-1.8,1.5-4,2.6-6.7,3.2c-2.7,0.7-5.4,1-8.3,1c-5.7,0-10.4-1.6-14.1-4.8
		c-3.7-3.2-5.5-8.9-5.5-16.9c0-6.5,1.6-11.5,4.7-15.1c3.2-3.6,7.8-5.4,14-5.4c1.4,0,3.1,0.2,5,0.6c1.9,0.4,3.6,0.9,5.1,1.7v-18.1
		H278.9z M270.6,128.6c-1.3-0.7-2.7-1.3-4.3-1.7c-1.6-0.4-3.1-0.6-4.6-0.6c-7.6,0-11.4,4.5-11.4,13.5c0,4.5,0.9,8,2.6,10.5
		c1.7,2.5,4.7,3.8,9,3.8c2.5,0,4.5-0.3,6.2-0.9c1.7-0.6,2.5-1.4,2.5-2.3V128.6z"/>
	<path d="M346,136.4c1.8,2.2,2.6,5,2.6,8.3c0,5.2-1.8,9.1-5.3,11.7c-3.5,2.6-8.3,3.8-14.3,3.8h-21.6v-53.4h19.8
		c6.2,0,10.9,1.3,13.9,3.8c3,2.5,4.5,6.1,4.5,10.7c0,2.6-0.6,4.7-1.7,6.2c-1.1,1.5-2.7,2.9-4.7,4.1C342,132.6,344.3,134.2,346,136.4
		z M316.2,129.1h12c2.5,0,4.6-0.5,6.1-1.5c1.6-1,2.4-2.9,2.4-5.5c0-2.8-0.8-4.8-2.4-6c-1.6-1.2-3.9-1.8-6.9-1.8h-11.3V129.1z
		 M336.7,151c1.9-1.3,2.9-3.5,2.9-6.7s-1-5.4-3-6.4c-2-1.1-4.6-1.6-7.9-1.6h-12.4v16.7h12.7C332.2,152.9,334.8,152.3,336.7,151z"/>
	<path d="M355.5,160.3v-55.4h8.3v55.4H355.5z"/>
	<path d="M375.1,156c-3.2-3.6-4.8-8.9-4.8-15.9c0-14,6.4-21.1,19.2-21.1c6.5,0,11.3,1.8,14.6,5.4c3.3,3.6,4.9,8.8,4.9,15.7
		c0,6.8-1.7,12.1-5,15.8c-3.4,3.7-8.1,5.5-14.3,5.5C383.2,161.5,378.4,159.6,375.1,156z M400.6,140.1c0-4.7-0.9-8.2-2.6-10.5
		s-4.6-3.5-8.4-3.5c-3.9,0-6.7,1.2-8.4,3.6c-1.7,2.4-2.5,5.9-2.5,10.5c0,4.6,0.9,8.1,2.6,10.5c1.7,2.4,4.5,3.6,8.3,3.6
		C396.9,154.3,400.6,149.6,400.6,140.1z"/>
	<path d="M445.7,121.8c3,1.8,4.4,4.4,4.4,7.8v31.9c0,4.6-1.5,8.3-4.5,11.2c-3,2.9-7.7,4.3-14.3,4.3c-4.8,0-9.1-0.7-13-2.2v-7.7
		c4.4,1.7,8.5,2.5,12.3,2.5c4.3,0,7.2-0.8,8.7-2.3c1.5-1.5,2.3-3.5,2.3-6v-2.7c-1.5,0.9-3.2,1.5-5.1,2.1c-1.8,0.5-3.6,0.8-5.4,0.8
		c-5.9-0.1-10.3-1.9-13.4-5.4c-3.1-3.5-4.6-8.4-4.6-14.8c0-8.3,1.9-14.1,5.8-17.3c3.8-3.2,9-4.8,15.4-4.8
		C439,119.2,442.8,120,445.7,121.8z M424.6,150.9c1.8,2.4,4.5,3.6,8.1,3.6c3.5,0,6.5-0.8,9.1-2.3v-21.1c0-1.9-0.7-3.2-2.1-3.8
		c-1.4-0.7-3.3-1-5.7-1c-4.5,0-7.7,1.3-9.5,3.9c-1.8,2.6-2.6,6.2-2.6,10.8C421.9,145.2,422.8,148.5,424.6,150.9z"/>
</g>
</svg>
